<?xml version="1.0" encoding="UTF-8"?>
<svg width="35px" height="35px" viewBox="0 0 35 35" version="1.1" xmlns="http://www.w3.org/2000/svg" xmlns:xlink="http://www.w3.org/1999/xlink">
    <!-- Generator: Sketch 43.1 (39012) - http://www.bohemiancoding.com/sketch -->
    <title>img-roomtype-2</title>
    <desc>Created with Sketch.</desc>
    <defs></defs>
    <g id="Page-1" stroke="none" stroke-width="1" fill="none" fill-rule="evenodd">
        <g id="img-quicklink-resort" transform="translate(7.000000, 3.000000)" fill-rule="nonzero" fill="#666666">
            <path d="M8.47347059,9.54779688 L7.26303922,9.54779688 L7.26303922,11.2311563 L8.47347059,11.2311563 L8.47347059,9.54779688 Z M12.1056667,9.54779688 L10.8947843,9.54779688 L10.8947843,11.2311563 L12.1056667,11.2311563 L12.1056667,9.54779688 Z M15.7369608,9.54779688 L14.5265294,9.54779688 L14.5265294,11.2311563 L15.7369608,11.2311563 L15.7369608,9.54779688 L15.7369608,9.54779688 Z M7.26303922,15.888375 L8.47347059,15.888375 L8.47347059,14.2045625 L7.26303922,14.2045625 L7.26303922,15.888375 L7.26303922,15.888375 Z M10.8947843,15.888375 L12.1056667,15.888375 L12.1056667,14.2045625 L10.8947843,14.2045625 L10.8947843,15.888375 Z M14.5265294,15.888375 L15.7369608,15.888375 L15.7369608,14.2045625 L14.5265294,14.2045625 L14.5265294,15.888375 Z M21.7886667,4.1379375 L17.3983725,4.1379375 C17.3740196,4.11392188 17.3582353,4.08446875 17.3298235,4.063625 L11.8328235,0.112828125 C11.6226667,-0.0380625 11.3417059,-0.037609375 11.131098,0.113734375 L5.66882353,4.06498438 C5.64086275,4.08492188 5.62462745,4.11392188 5.60162745,4.1379375 L1.21043137,4.1379375 L1.21043137,5.36590625 L21.7895686,5.36590625 L21.7895686,4.1379375 L21.7886667,4.1379375 L21.7886667,4.1379375 Z M7.65313725,4.1379375 L11.4842157,1.36707813 L15.3396471,4.1379375 L7.65313725,4.1379375 Z M0,27.3234375 L0,28.5509531 L23,28.5509531 L23,27.3234375 L0,27.3234375 Z M21.7886667,24.4624063 L19.7709804,24.4624063 L19.7709804,7.01935938 L18.560549,7.01935938 L18.560549,24.4628594 L14.2915686,24.4628594 L14.2915686,21.59775 C14.2915686,20.035375 13.0396471,18.7639063 11.499549,18.7639063 C9.95945098,18.7639063 8.70572549,20.035375 8.70572549,21.59775 L8.70572549,24.4628594 L4.43764706,24.4628594 L4.43764706,7.01935938 L3.22721569,7.01935938 L3.22721569,24.4628594 L1.20907843,24.4628594 L1.20907843,25.690375 L21.7882157,25.690375 L21.7882157,24.4624063 L21.7886667,24.4624063 Z M13.0824902,24.4624063 L9.91705882,24.4624063 L9.91705882,21.5972969 C9.91705882,20.7118906 10.626902,19.9914219 11.500451,19.9914219 C12.373098,19.9914219 13.0824902,20.7118906 13.0824902,21.5972969 L13.0824902,24.4624063 L13.0824902,24.4624063 Z" id="Shape"></path>
        </g>
    </g>
</svg>