<?xml version="1.0" encoding="UTF-8"?>
<svg width="35px" height="35px" viewBox="0 0 35 35" version="1.1" xmlns="http://www.w3.org/2000/svg" xmlns:xlink="http://www.w3.org/1999/xlink">
    <!-- Generator: Sketch 43.1 (39012) - http://www.bohemiancoding.com/sketch -->
    <title>img-roomtype-1</title>
    <desc>Created with Sketch.</desc>
    <defs></defs>
    <g id="Page-1" stroke="none" stroke-width="1" fill="none" fill-rule="evenodd">
        <g id="img-quicklink-motel" transform="translate(5.000000, 4.000000)" fill-rule="nonzero" fill="#666666">
            <path d="M26.3192143,17.8867895 C26.1273214,17.6954211 25.8370714,17.6333684 25.5800893,17.7285789 C25.083,17.9128421 24.566625,18.0677368 24.046875,18.189 C23.5194107,18.3121579 22.977,18.4021579 22.4355536,18.4566316 C22.0035536,18.5006842 21.5652857,18.5229474 21.13425,18.5229474 C14.3456786,18.5229474 8.82321429,13.2446842 8.82321429,6.75710526 C8.82321429,6.32747368 8.84780357,5.89310526 8.89698214,5.46678947 L8.974125,4.79415789 L7.59760714,4.64352632 L7.52046429,5.31663158 C7.46598214,5.79268421 7.4385,6.27773684 7.4385,6.75757895 C7.4385,13.9921579 13.5829286,19.8776842 21.1347321,19.8776842 C21.6130179,19.8776842 22.0990179,19.8530526 22.5792321,19.8052105 C23.1799821,19.7441053 23.7826607,19.6436842 24.3694286,19.5067895 C24.4205357,19.4949474 24.4730893,19.4821579 24.5256429,19.4698421 C22.3955357,23.2128947 18.2211429,25.6405263 13.6971964,25.6405263 C6.908625,25.6405263 1.38519643,20.3613158 1.38519643,13.8732632 C1.38519643,8.97868421 4.47283929,4.67147368 9.25135714,2.90178947 L9.89935714,2.66210526 L9.40853571,1.39547368 L8.76101786,1.63515789 C3.52060714,3.57536842 0,8.49363158 0,13.8723158 C0,21.1073684 6.14442857,26.9933684 13.6967143,26.9933684 C19.3966071,26.9933684 24.4104107,23.7031579 26.4696429,18.6105789 C26.5704107,18.3614211 26.5111071,18.0772105 26.3192143,17.8867895 Z M17.4627321,10.8800526 L22.3010357,12.3868421 L22.7209821,11.0965263 L19.5615,10.1126842 L23.3839286,8.34963158 C23.641875,8.23121053 23.7990536,7.97021053 23.7792857,7.69263158 C23.7614464,7.41505263 23.5700357,7.17678947 23.2990714,7.092 L18.4607679,5.58473684 L18.0398571,6.87505263 L21.2003036,7.85984211 L17.3769107,9.62289474 C17.1199286,9.74131579 16.96275,10.0023158 16.9815536,10.2798947 C17.0003571,10.5574737 17.1912857,10.7957368 17.4627321,10.8800526 Z M22.001625,1.80473684 L21.2022321,3.10452632 C21.0551786,3.34326316 21.0730179,3.64547368 21.2465893,3.86621053 C21.3801429,4.03578947 21.5845714,4.131 21.7962321,4.131 C21.8603571,4.131 21.9259286,4.122 21.9876429,4.10447368 L24.9841607,3.25989474 L24.6008571,1.95868421 L23.2966607,2.32626316 L24.0960536,1.02647368 C24.2435893,0.787736842 24.22575,0.485526316 24.0516964,0.264789474 C23.8786071,0.0445263158 23.5854643,-0.0497368421 23.3106429,0.027 L20.314125,0.871105263 L20.6974286,2.17231579 L22.001625,1.80473684 Z" id="Shape"></path>
        </g>
    </g>
</svg>